<svg width="19" height="19" viewBox="0 0 19 19" fill="none" xmlns="http://www.w3.org/2000/svg">
<g clip-path="url(#clip0_87314_3)">
<path fill-rule="evenodd" clip-rule="evenodd" d="M31.2538 0.154505C32.7682 0.154505 34.1385 0.535926 35.3649 1.29065C36.5913 2.05079 37.5618 3.12471 38.2763 4.52055C38.9908 5.91639 39.3481 7.53404 39.3481 9.37351C39.3481 11.213 38.9908 12.8415 38.2763 14.2589C37.5618 15.6764 36.5913 16.7747 35.3649 17.5538C34.1385 18.3328 32.7682 18.7224 31.2538 18.7224C29.9528 18.7224 28.8064 18.4519 27.8146 17.9108C26.8228 17.3698 26.0176 16.6881 25.3991 15.8658V27H20.92V0.446657H25.3991V3.04356C25.975 2.22391 26.7695 1.53411 27.7826 0.982268C28.7957 0.430426 29.9528 0.154505 31.2538 0.154505ZM49.074 0.154505C50.759 0.154505 52.268 0.5224 53.601 1.25819C54.9341 1.99398 55.9685 3.03815 56.7044 4.39071C57.4402 5.74326 57.8081 7.29599 57.8081 9.0489C57.8081 9.69813 57.7655 10.2824 57.6802 10.8018H44.7229C44.8296 12.1003 45.2775 13.1174 46.0666 13.8532C46.8558 14.589 47.8263 14.9569 48.978 14.9569C50.6417 14.9569 51.8254 14.2319 52.5293 12.7819H57.3602C56.8483 14.5132 55.8672 15.9361 54.4169 17.0506C52.9665 18.1678 51.1855 18.7224 49.074 18.7224C47.3677 18.7224 45.8374 18.3382 44.483 17.57C43.1286 16.8017 42.0728 15.7143 41.3157 14.3076C40.5585 12.901 40.1799 11.2779 40.1799 9.43844C40.1799 7.58003 40.5532 5.94614 41.2997 4.53678C42.0462 3.13012 43.0913 2.05079 44.435 1.29065C45.7787 0.535926 47.325 0.154505 49.074 0.154505ZM119.266 0.154505C120.951 0.154505 122.46 0.5224 123.793 1.25819C125.126 1.99398 126.16 3.03815 126.896 4.39071C127.632 5.74326 128 7.29599 128 9.0489C128 9.69813 127.957 10.2824 127.872 10.8018H114.915C115.021 12.1003 115.469 13.1174 116.259 13.8532C117.048 14.589 118.018 14.9569 119.17 14.9569C120.834 14.9569 122.017 14.2319 122.721 12.7819H127.552C127.04 14.5132 126.059 15.9361 124.609 17.0506C123.158 18.1678 121.377 18.7224 119.266 18.7224C117.56 18.7224 116.029 18.3382 114.675 17.57C113.32 16.8017 112.265 15.7143 111.508 14.3076C110.75 12.901 110.372 11.2779 110.372 9.43844C110.372 7.58003 110.745 5.94614 111.492 4.53678C112.238 3.13012 113.283 2.05079 114.627 1.29065C115.971 0.535926 117.517 0.154505 119.266 0.154505ZM4.42572 12.3326L12.6639 17.1748C12.344 17.4453 11.9708 17.6887 11.5709 17.9052C10.5577 18.4462 9.38465 18.7167 8.05161 18.7167C6.74522 18.7167 5.51882 18.4191 4.42572 17.797V12.3326ZM86.2484 0.447469V10.3482C86.2484 11.7765 86.6003 12.8747 87.3042 13.643C88.008 14.4112 88.9678 14.7954 90.1836 14.7954C91.4206 14.7954 92.3911 14.4112 93.095 13.643C93.7988 12.8747 94.1507 11.7765 94.1507 10.3482V0.447469H98.6618V18.431H94.1507V16.1587C93.5749 16.9378 92.823 17.5492 91.8952 17.9928C90.9674 18.4364 89.9596 18.6583 88.8719 18.6583C87.4855 18.6583 86.2591 18.3607 85.1926 17.7656C84.1262 17.1704 83.2891 16.294 82.6812 15.1362C82.0733 13.9784 81.7694 12.5988 81.7694 10.9974V0.447469H86.2484ZM69.0697 0.188048V4.95986H67.886C66.4783 4.95986 65.4172 5.29529 64.7027 5.96616C63.9881 6.63703 63.6309 7.80563 63.6309 9.47198V18.4313H59.1518V0.447739H63.6309V3.23941C64.2068 2.28721 64.9586 1.5406 65.8864 0.999581C66.8142 0.45856 67.8753 0.188048 69.0697 0.188048ZM110.436 0.188048V4.95986H109.252C107.844 4.95986 106.783 5.29529 106.069 5.96616C105.354 6.63703 104.997 7.80563 104.997 9.47198V18.4313H100.518V0.447739H104.997V3.23941C105.573 2.28721 106.325 1.5406 107.252 0.999581C108.18 0.45856 109.241 0.188048 110.436 0.188048ZM76.6524 -4V0.447198H80.6195V4.18025H76.6524V12.8799C76.6524 13.4858 76.7963 13.924 77.0843 14.1946C77.3722 14.4651 77.8574 14.6003 78.5399 14.6003H80.6195V18.4308H77.8041C74.0289 18.4308 72.1413 16.5696 72.1413 12.8474V4.18025H70.0298V0.447198H72.1413V-4H76.6524ZM18.4494 8.57199V18.4186H13.9437V15.7946C13.7304 16.1192 13.4904 16.4168 13.1972 16.6873L8.87809 14.1716L18.4494 8.57199ZM3.75919 7.51673V17.3904C2.63943 16.6329 1.73296 15.605 1.06644 14.2524C0.399914 12.9269 0.0533219 11.4121 0 9.70787L3.75919 7.51673ZM30.0701 4.14725C29.2596 4.14725 28.4971 4.35824 27.7826 4.78024C27.0681 5.20224 26.4922 5.81359 26.0549 6.6143C25.6177 7.41502 25.3991 8.35639 25.3991 9.43844C25.3991 10.5205 25.6177 11.4646 26.0549 12.2626C26.4922 13.0633 27.0681 13.6746 27.7826 14.0966C28.4971 14.5186 29.2596 14.7296 30.0701 14.7296C30.9019 14.7296 31.6751 14.5132 32.3896 14.0804C33.1041 13.6476 33.68 13.0308 34.1172 12.2301C34.5545 11.4294 34.7731 10.4772 34.7731 9.37351C34.7731 8.29147 34.5545 7.3555 34.1172 6.56561C33.68 5.77572 33.1041 5.17519 32.3896 4.76401C31.6751 4.35283 30.9019 4.14725 30.0701 4.14725ZM18.4488 0.456666V7.78751L12.6634 11.1689V1.70102C13.17 2.07973 13.5965 2.51255 13.9431 2.99947V0.456666H18.4488ZM3.09267 1.91769L7.54505 4.5146L0.0266609 8.92393C0.0533219 7.27381 0.399914 5.81305 1.06644 4.54165C1.59966 3.48666 2.29284 2.62102 3.09267 1.91769ZM48.946 3.88755C47.8369 3.88755 46.9038 4.2284 46.1466 4.91009C45.3895 5.59177 44.9256 6.53856 44.7549 7.75045H53.1691C53.1478 6.58184 52.7319 5.64588 51.9214 4.94255C51.1109 4.23922 50.1191 3.88755 48.946 3.88755ZM119.138 3.88755C118.029 3.88755 117.096 4.2284 116.339 4.91009C115.581 5.59177 115.117 6.53856 114.947 7.75045H123.361C123.34 6.58184 122.924 5.64588 122.113 4.94255C121.303 4.23922 120.311 3.88755 119.138 3.88755ZM8.10439 0.159375C9.41078 0.159375 10.5572 0.429885 11.5703 0.970907C11.7036 1.05206 11.8636 1.13321 11.9969 1.24142V6.35407L3.70534 1.48488C3.78532 1.40372 3.89196 1.34962 3.97195 1.29552C5.19835 0.53809 6.58472 0.159375 8.10439 0.159375Z" fill="white"/>
</g>
<defs>
<clipPath id="clip0_87314_3">
<rect width="128" height="31" fill="white" transform="translate(0 -4)"/>
</clipPath>
</defs>
</svg>
